<svg xmlns="http://www.w3.org/2000/svg" xmlns:xlink="http://www.w3.org/1999/xlink" width="100" zoomAndPan="magnify" viewBox="0 0 75 30.000001" height="40" preserveAspectRatio="xMidYMid meet" version="1.0"><defs><g/><clipPath id="id1"><path d="M 1.210938 1.660156 L 18.628906 1.660156 L 18.628906 27.0625 L 1.210938 27.0625 Z M 1.210938 1.660156 " clip-rule="nonzero"/></clipPath></defs><g clip-path="url(#id1)"><path fill="#000000" d="M 12.328125 1.664062 L 15.609375 1.664062 C 15.984375 1.664062 16.289062 1.964844 16.289062 2.335938 C 16.289062 2.339844 16.289062 2.339844 16.289062 2.34375 L 16.445312 4.550781 C 16.449219 4.597656 16.480469 4.640625 16.527344 4.652344 C 17.234375 4.835938 17.910156 5.09375 18.546875 5.417969 C 18.550781 5.417969 18.550781 5.417969 18.550781 5.417969 C 18.609375 5.449219 18.628906 5.527344 18.585938 5.582031 L 17.035156 7.613281 C 17.003906 7.652344 16.949219 7.667969 16.902344 7.648438 C 16.636719 7.53125 16.363281 7.433594 16.082031 7.347656 C 15.722656 7.242188 15.355469 7.160156 14.972656 7.109375 C 14.746094 7.078125 14.515625 7.058594 14.28125 7.046875 C 14.179688 7.042969 14.074219 7.042969 13.96875 7.042969 C 13.769531 7.042969 13.566406 7.050781 13.371094 7.066406 C 11.214844 7.238281 9.324219 8.335938 8.09375 9.957031 C 7.164062 11.179688 6.613281 12.707031 6.613281 14.363281 C 6.613281 18.402344 9.90625 21.679688 13.96875 21.679688 C 15.011719 21.679688 16.003906 21.464844 16.902344 21.078125 C 16.949219 21.054688 17.003906 21.070312 17.035156 21.109375 L 17.179688 21.300781 L 18.585938 23.140625 C 18.628906 23.195312 18.609375 23.273438 18.546875 23.304688 C 18.542969 23.308594 18.535156 23.3125 18.527344 23.316406 C 18.515625 23.320312 18.507812 23.328125 18.496094 23.332031 C 18.175781 23.492188 17.847656 23.636719 17.507812 23.761719 C 17.1875 23.878906 16.863281 23.984375 16.527344 24.070312 C 16.480469 24.082031 16.449219 24.125 16.445312 24.171875 L 16.289062 26.378906 C 16.289062 26.382812 16.289062 26.382812 16.289062 26.386719 C 16.289062 26.757812 15.984375 27.058594 15.609375 27.058594 L 12.328125 27.058594 C 11.957031 27.058594 11.652344 26.757812 11.648438 26.386719 C 11.648438 26.382812 11.648438 26.382812 11.648438 26.378906 L 11.496094 24.171875 C 11.492188 24.125 11.457031 24.082031 11.410156 24.070312 C 10.511719 23.835938 9.664062 23.484375 8.878906 23.027344 C 8.839844 23.003906 8.785156 23.007812 8.75 23.039062 L 7.070312 24.492188 C 7.070312 24.492188 7.066406 24.496094 7.066406 24.496094 C 6.800781 24.757812 6.371094 24.757812 6.105469 24.492188 L 4.695312 23.085938 L 3.789062 22.1875 C 3.523438 21.921875 3.523438 21.496094 3.785156 21.230469 C 3.789062 21.230469 3.789062 21.226562 3.789062 21.226562 L 5.25 19.554688 C 5.28125 19.519531 5.285156 19.46875 5.261719 19.425781 C 4.804688 18.648438 4.449219 17.800781 4.210938 16.90625 C 4.199219 16.859375 4.160156 16.828125 4.113281 16.824219 L 1.894531 16.671875 C 1.890625 16.667969 1.890625 16.667969 1.886719 16.667969 C 1.511719 16.667969 1.210938 16.367188 1.210938 15.992188 L 1.210938 12.730469 C 1.210938 12.355469 1.511719 12.054688 1.886719 12.054688 C 1.890625 12.054688 1.890625 12.054688 1.894531 12.050781 L 4.113281 11.898438 C 4.160156 11.894531 4.199219 11.863281 4.210938 11.816406 C 4.449219 10.921875 4.804688 10.074219 5.261719 9.296875 C 5.285156 9.253906 5.28125 9.203125 5.25 9.167969 L 5.003906 8.886719 L 3.789062 7.496094 C 3.789062 7.496094 3.789062 7.492188 3.785156 7.492188 C 3.523438 7.226562 3.523438 6.800781 3.789062 6.535156 L 4.695312 5.636719 L 6.105469 4.230469 C 6.371094 3.964844 6.800781 3.964844 7.066406 4.226562 C 7.066406 4.226562 7.070312 4.230469 7.070312 4.230469 L 8.75 5.683594 C 8.785156 5.714844 8.839844 5.71875 8.878906 5.695312 C 9.554688 5.300781 10.28125 4.984375 11.046875 4.753906 C 11.167969 4.71875 11.289062 4.683594 11.410156 4.652344 C 11.457031 4.640625 11.492188 4.597656 11.496094 4.550781 L 11.519531 4.222656 L 11.535156 3.953125 L 11.59375 3.132812 L 11.648438 2.34375 C 11.648438 2.339844 11.648438 2.339844 11.648438 2.335938 C 11.652344 1.964844 11.957031 1.664062 12.328125 1.664062 " fill-opacity="1" fill-rule="nonzero"/></g><g fill="#000000" fill-opacity="1"><g transform="translate(10.239393, 17.902606)"><g><path d="M 4 -4.578125 L 6.171875 -7.109375 L 7.921875 -7.109375 L 4.875 -3.546875 L 7.90625 0 L 6.15625 0 L 4 -2.515625 L 1.84375 0 L 0.09375 0 L 3.125 -3.546875 L 0.078125 -7.109375 L 1.828125 -7.109375 Z M 4 -4.578125 "/></g></g></g><g fill="#000000" fill-opacity="1"><g transform="translate(18.228514, 17.902606)"><g><path d="M 8.21875 -2.875 C 8.21875 -2.445312 8.140625 -2.050781 7.984375 -1.6875 C 7.835938 -1.320312 7.628906 -1.003906 7.359375 -0.734375 C 7.097656 -0.472656 6.785156 -0.269531 6.421875 -0.125 C 6.066406 0.0195312 5.675781 0.09375 5.25 0.09375 L 3.5 0.09375 C 3.070312 0.09375 2.675781 0.0195312 2.3125 -0.125 C 1.945312 -0.269531 1.632812 -0.472656 1.375 -0.734375 C 1.113281 -1.003906 0.90625 -1.320312 0.75 -1.6875 C 0.601562 -2.050781 0.53125 -2.445312 0.53125 -2.875 L 0.53125 -4.234375 C 0.53125 -4.660156 0.601562 -5.054688 0.75 -5.421875 C 0.90625 -5.785156 1.113281 -6.097656 1.375 -6.359375 C 1.632812 -6.628906 1.945312 -6.835938 2.3125 -6.984375 C 2.675781 -7.128906 3.070312 -7.203125 3.5 -7.203125 L 5.25 -7.203125 C 5.675781 -7.203125 6.066406 -7.128906 6.421875 -6.984375 C 6.785156 -6.835938 7.097656 -6.628906 7.359375 -6.359375 C 7.628906 -6.097656 7.835938 -5.785156 7.984375 -5.421875 C 8.140625 -5.054688 8.21875 -4.660156 8.21875 -4.234375 Z M 6.921875 -4.234375 C 6.921875 -4.484375 6.878906 -4.710938 6.796875 -4.921875 C 6.722656 -5.128906 6.609375 -5.304688 6.453125 -5.453125 C 6.304688 -5.597656 6.128906 -5.710938 5.921875 -5.796875 C 5.722656 -5.878906 5.5 -5.921875 5.25 -5.921875 L 3.5 -5.921875 C 3.25 -5.921875 3.019531 -5.878906 2.8125 -5.796875 C 2.601562 -5.710938 2.425781 -5.597656 2.28125 -5.453125 C 2.132812 -5.304688 2.019531 -5.128906 1.9375 -4.921875 C 1.851562 -4.710938 1.8125 -4.484375 1.8125 -4.234375 L 1.8125 -2.875 C 1.8125 -2.625 1.851562 -2.394531 1.9375 -2.1875 C 2.019531 -1.976562 2.132812 -1.800781 2.28125 -1.65625 C 2.425781 -1.507812 2.601562 -1.394531 2.8125 -1.3125 C 3.019531 -1.226562 3.25 -1.1875 3.5 -1.1875 L 5.234375 -1.1875 C 5.484375 -1.1875 5.710938 -1.226562 5.921875 -1.3125 C 6.128906 -1.394531 6.304688 -1.507812 6.453125 -1.65625 C 6.609375 -1.800781 6.722656 -1.976562 6.796875 -2.1875 C 6.878906 -2.394531 6.921875 -2.625 6.921875 -2.875 Z M 6.921875 -4.234375 "/></g></g></g><g fill="#000000" fill-opacity="1"><g transform="translate(26.961039, 17.902606)"><g><path d="M 7.578125 -2.09375 C 7.578125 -1.832031 7.546875 -1.597656 7.484375 -1.390625 C 7.421875 -1.191406 7.335938 -1.015625 7.234375 -0.859375 C 7.128906 -0.710938 7.003906 -0.582031 6.859375 -0.46875 C 6.710938 -0.363281 6.5625 -0.273438 6.40625 -0.203125 C 6.257812 -0.128906 6.109375 -0.078125 5.953125 -0.046875 C 5.796875 -0.015625 5.648438 0 5.515625 0 L 0.53125 0 L 0.53125 -1.296875 L 5.515625 -1.296875 C 5.753906 -1.296875 5.941406 -1.363281 6.078125 -1.5 C 6.222656 -1.644531 6.296875 -1.84375 6.296875 -2.09375 C 6.296875 -2.207031 6.273438 -2.3125 6.234375 -2.40625 C 6.203125 -2.507812 6.148438 -2.597656 6.078125 -2.671875 C 6.015625 -2.742188 5.929688 -2.800781 5.828125 -2.84375 C 5.734375 -2.882812 5.628906 -2.90625 5.515625 -2.90625 L 2.546875 -2.90625 C 2.335938 -2.90625 2.109375 -2.941406 1.859375 -3.015625 C 1.617188 -3.085938 1.394531 -3.207031 1.1875 -3.375 C 0.988281 -3.539062 0.816406 -3.753906 0.671875 -4.015625 C 0.535156 -4.285156 0.46875 -4.617188 0.46875 -5.015625 C 0.46875 -5.398438 0.535156 -5.722656 0.671875 -5.984375 C 0.816406 -6.253906 0.988281 -6.472656 1.1875 -6.640625 C 1.394531 -6.804688 1.617188 -6.925781 1.859375 -7 C 2.109375 -7.070312 2.335938 -7.109375 2.546875 -7.109375 L 6.9375 -7.109375 L 6.9375 -5.828125 L 2.546875 -5.828125 C 2.296875 -5.828125 2.101562 -5.75 1.96875 -5.59375 C 1.832031 -5.445312 1.765625 -5.253906 1.765625 -5.015625 C 1.765625 -4.765625 1.832031 -4.566406 1.96875 -4.421875 C 2.101562 -4.273438 2.296875 -4.203125 2.546875 -4.203125 L 5.515625 -4.203125 C 5.660156 -4.203125 5.804688 -4.179688 5.953125 -4.140625 C 6.109375 -4.109375 6.265625 -4.054688 6.421875 -3.984375 C 6.578125 -3.910156 6.722656 -3.816406 6.859375 -3.703125 C 7.003906 -3.597656 7.128906 -3.46875 7.234375 -3.3125 C 7.335938 -3.15625 7.421875 -2.972656 7.484375 -2.765625 C 7.546875 -2.566406 7.578125 -2.34375 7.578125 -2.09375 Z M 7.578125 -2.09375 "/></g></g></g><g fill="#000000" fill-opacity="1"><g transform="translate(34.86095, 17.902606)"><g><path d="M 6.59375 -2.90625 L 2.53125 -2.90625 L 2.53125 -4.203125 L 6.59375 -4.203125 Z M 7.171875 0 L 2.53125 0 C 2.34375 0 2.144531 -0.03125 1.9375 -0.09375 C 1.726562 -0.15625 1.53125 -0.257812 1.34375 -0.40625 C 1.164062 -0.550781 1.015625 -0.738281 0.890625 -0.96875 C 0.773438 -1.195312 0.71875 -1.476562 0.71875 -1.8125 L 0.71875 -6.46875 C 0.71875 -6.550781 0.734375 -6.628906 0.765625 -6.703125 C 0.796875 -6.785156 0.835938 -6.859375 0.890625 -6.921875 C 0.953125 -6.984375 1.023438 -7.03125 1.109375 -7.0625 C 1.191406 -7.09375 1.28125 -7.109375 1.375 -7.109375 L 7.171875 -7.109375 L 7.171875 -5.828125 L 2.015625 -5.828125 L 2.015625 -1.8125 C 2.015625 -1.644531 2.054688 -1.515625 2.140625 -1.421875 C 2.234375 -1.335938 2.363281 -1.296875 2.53125 -1.296875 L 7.171875 -1.296875 Z M 7.171875 0 "/></g></g></g><g fill="#000000" fill-opacity="1"><g transform="translate(42.527934, 17.902606)"><g><path d="M 7.84375 -2.96875 C 7.84375 -2.539062 7.765625 -2.144531 7.609375 -1.78125 C 7.460938 -1.414062 7.253906 -1.101562 6.984375 -0.84375 C 6.722656 -0.582031 6.410156 -0.375 6.046875 -0.21875 C 5.691406 -0.0703125 5.300781 0 4.875 0 L 1.390625 0 C 1.296875 0 1.207031 -0.015625 1.125 -0.046875 C 1.050781 -0.078125 0.984375 -0.117188 0.921875 -0.171875 C 0.867188 -0.234375 0.820312 -0.304688 0.78125 -0.390625 C 0.75 -0.472656 0.734375 -0.5625 0.734375 -0.65625 L 0.734375 -6.46875 C 0.734375 -6.550781 0.75 -6.628906 0.78125 -6.703125 C 0.820312 -6.785156 0.867188 -6.859375 0.921875 -6.921875 C 0.984375 -6.984375 1.050781 -7.03125 1.125 -7.0625 C 1.207031 -7.09375 1.296875 -7.109375 1.390625 -7.109375 L 4.875 -7.109375 C 5.300781 -7.109375 5.691406 -7.035156 6.046875 -6.890625 C 6.410156 -6.742188 6.722656 -6.535156 6.984375 -6.265625 C 7.253906 -6.003906 7.460938 -5.691406 7.609375 -5.328125 C 7.765625 -4.960938 7.84375 -4.566406 7.84375 -4.140625 Z M 6.5625 -4.140625 C 6.5625 -4.390625 6.519531 -4.617188 6.4375 -4.828125 C 6.351562 -5.035156 6.234375 -5.210938 6.078125 -5.359375 C 5.929688 -5.503906 5.753906 -5.617188 5.546875 -5.703125 C 5.347656 -5.785156 5.125 -5.828125 4.875 -5.828125 L 2.03125 -5.828125 L 2.03125 -1.296875 L 4.875 -1.296875 C 5.125 -1.296875 5.347656 -1.332031 5.546875 -1.40625 C 5.753906 -1.488281 5.929688 -1.601562 6.078125 -1.75 C 6.234375 -1.894531 6.351562 -2.070312 6.4375 -2.28125 C 6.519531 -2.488281 6.5625 -2.71875 6.5625 -2.96875 Z M 6.5625 -4.140625 "/></g></g></g><g fill="#000000" fill-opacity="1"><g transform="translate(50.883801, 17.902606)"><g><path d="M 6.59375 -2.90625 L 2.53125 -2.90625 L 2.53125 -4.203125 L 6.59375 -4.203125 Z M 7.171875 0 L 2.53125 0 C 2.34375 0 2.144531 -0.03125 1.9375 -0.09375 C 1.726562 -0.15625 1.53125 -0.257812 1.34375 -0.40625 C 1.164062 -0.550781 1.015625 -0.738281 0.890625 -0.96875 C 0.773438 -1.195312 0.71875 -1.476562 0.71875 -1.8125 L 0.71875 -6.46875 C 0.71875 -6.550781 0.734375 -6.628906 0.765625 -6.703125 C 0.796875 -6.785156 0.835938 -6.859375 0.890625 -6.921875 C 0.953125 -6.984375 1.023438 -7.03125 1.109375 -7.0625 C 1.191406 -7.09375 1.28125 -7.109375 1.375 -7.109375 L 7.171875 -7.109375 L 7.171875 -5.828125 L 2.015625 -5.828125 L 2.015625 -1.8125 C 2.015625 -1.644531 2.054688 -1.515625 2.140625 -1.421875 C 2.234375 -1.335938 2.363281 -1.296875 2.53125 -1.296875 L 7.171875 -1.296875 Z M 7.171875 0 "/></g></g></g><g fill="#000000" fill-opacity="1"><g transform="translate(58.550785, 17.902606)"><g><path d="M 7.859375 -7.109375 L 4.5 -0.25 C 4.445312 -0.144531 4.367188 -0.0625 4.265625 0 C 4.160156 0.0625 4.046875 0.09375 3.921875 0.09375 C 3.796875 0.09375 3.679688 0.0625 3.578125 0 C 3.472656 -0.0625 3.394531 -0.144531 3.34375 -0.25 L -0.03125 -7.109375 L 1.421875 -7.109375 L 3.921875 -1.984375 L 6.421875 -7.109375 Z M 7.859375 -7.109375 "/></g></g></g></svg>